<svg id="Groupe_179" data-name="Groupe 179" xmlns="http://www.w3.org/2000/svg" width="16.43" height="16.43" viewBox="0 0 16.43 16.43">
  <path id="Tracé_919" data-name="Tracé 919" d="M16.43,8.215A8.215,8.215,0,1,1,8.215,0,8.216,8.216,0,0,1,16.43,8.215Z" fill="#00277e"/>
  <g id="Groupe_176" data-name="Groupe 176" transform="translate(5.038 1.387)">
    <path id="Tracé_920" data-name="Tracé 920" d="M45.374,13.519l.007.018a2.243,2.243,0,0,0,.523.817l.551-.011a2.891,2.891,0,0,0,.593-.642,1.459,1.459,0,0,0,.146-.289l.009-.025.024.013a1.124,1.124,0,0,1,.558.9l.275-.013a1.417,1.417,0,0,0-.776-1.163l-.014-.007,0-.016a1.4,1.4,0,0,0-.63-1.352l-.02-.013a1.413,1.413,0,0,0-1.693.11l-.015.013-.015-.013a1.4,1.4,0,0,0-.935-.359,1.415,1.415,0,0,0-.756.22l-.021.013a1.418,1.418,0,0,0-.649,1.363l0,.017-.015.007a1.4,1.4,0,0,0-.806,1.182l.275.013a1.119,1.119,0,0,1,.588-.915l.023-.012.009.025a1.436,1.436,0,0,0,.132.269,3,3,0,0,0,.612.68l.5.01a2.3,2.3,0,0,0,.346-.41,2.214,2.214,0,0,0,.208-.406l.007-.018.019,0a2.208,2.208,0,0,0,.922,0Zm.792.706-.014-.014a2.091,2.091,0,0,1-.332-.4,1.962,1.962,0,0,1-.168-.336l-.009-.023.024-.007.124-.037a2.748,2.748,0,0,1,.861-.158,1.178,1.178,0,0,1,.269.032l.025.006-.009.024a1.162,1.162,0,0,1-.12.241,2.824,2.824,0,0,1-.614.644ZM43.613,14.2l-.03-.026a2.959,2.959,0,0,1-.606-.659,1.143,1.143,0,0,1-.105-.215l-.009-.025.026-.005a1.166,1.166,0,0,1,.237-.024,2.821,2.821,0,0,1,.876.16l.12.035.024.007-.01.023a1.9,1.9,0,0,1-.166.318,2.063,2.063,0,0,1-.342.4Zm1.276-.907a1.932,1.932,0,0,1-.358-.034l-.025,0,.007-.024.035-.116a2.992,2.992,0,0,1,.341-.813l.02-.03.019.031a2.846,2.846,0,0,1,.324.815l.038.136-.024,0A2.031,2.031,0,0,1,44.889,13.3Zm-.651-.105-.021-.006-.135-.04a3.087,3.087,0,0,0-.955-.172,1.471,1.471,0,0,0-.293.029l-.025.005,0-.026a1.146,1.146,0,0,1,.026-.321,1.128,1.128,0,0,1,.5-.71l.021-.013a1.141,1.141,0,0,1,.609-.177,1.124,1.124,0,0,1,.747.284l.016.014-.012.017c-.016.022-.032.043-.046.066a3.183,3.183,0,0,0-.382.9l-.04.132Zm1.32,0-.006-.022-.034-.121a3.1,3.1,0,0,0-.364-.9c-.014-.023-.029-.045-.045-.067l-.012-.017.016-.014a1.137,1.137,0,0,1,1.358-.084l.02.013A1.121,1.121,0,0,1,47,12.99l0,.027-.026-.006a1.416,1.416,0,0,0-.323-.038,3.016,3.016,0,0,0-.941.17l-.131.039Z" transform="translate(-41.718 -11.484)" fill="#ffd300"/>
  </g>
  <path id="Tracé_921" data-name="Tracé 921" d="M28.851,35.962l-.039-.076a53.27,53.27,0,0,1-6.223.365,53.268,53.268,0,0,1-6.223-.365c-.014.025-.026.051-.039.076a35.613,35.613,0,0,0,6.262.679A35.6,35.6,0,0,0,28.851,35.962Z" transform="translate(-14.356 -31.553)" fill="#ffd300"/>
  <path id="Tracé_922" data-name="Tracé 922" d="M16.328,93.733c.013.025.025.051.039.076a53.168,53.168,0,0,1,12.445,0l.039-.076a35.6,35.6,0,0,0-6.262-.679A35.6,35.6,0,0,0,16.328,93.733Z" transform="translate(-14.356 -81.817)" fill="#ffd300"/>
  <path id="Tracé_923" data-name="Tracé 923" d="M35.588,15.06l-.058-.032a1.322,1.322,0,0,1-.6-.725,1.319,1.319,0,0,1,.184-.925l.035-.055.057.032a1.324,1.324,0,0,1,.6.725,1.325,1.325,0,0,1-.184.925Zm-.381-1.5a1.061,1.061,0,0,0-.123.7,1.062,1.062,0,0,0,.443.559,1.06,1.06,0,0,0,.123-.7A1.058,1.058,0,0,0,35.207,13.561Z" transform="translate(-30.686 -11.714)" fill="#ffd300"/>
  <path id="Tracé_924" data-name="Tracé 924" d="M23.69,26.183c-.031.011-.062.021-.094.029a1.041,1.041,0,0,1-.834-.154,1.4,1.4,0,0,0-.574-.2l-.147-.011.111-.1a1.827,1.827,0,0,1,.552-.316,1.221,1.221,0,0,1,.462-.074,1.511,1.511,0,0,1,.948.478l.036.04-.037.042A1.069,1.069,0,0,1,23.69,26.183Zm-1.283-.44a1.677,1.677,0,0,1,.444.2.845.845,0,0,0,.687.134c.026-.007.052-.015.077-.024a.937.937,0,0,0,.3-.173,1.269,1.269,0,0,0-.761-.367,1.011,1.011,0,0,0-.383.062A2.506,2.506,0,0,0,22.407,25.743Z" transform="translate(-19.379 -22.297)" fill="#ffd300"/>
  <path id="Tracé_925" data-name="Tracé 925" d="M28.986,20.266a.788.788,0,0,1,.273.384.689.689,0,0,1-.728-.5A.791.791,0,0,1,28.986,20.266Z" transform="translate(-25.086 -17.712)" fill="#ffd300"/>
  <path id="Tracé_926" data-name="Tracé 926" d="M93.646,15a1.326,1.326,0,0,1-.184-.925,1.325,1.325,0,0,1,.6-.725l.057-.032.035.055a1.32,1.32,0,0,1,.185.925,1.323,1.323,0,0,1-.6.725l-.057.032Zm-.027-.885a1.058,1.058,0,0,0,.123.7,1.061,1.061,0,0,0,.443-.559,1.057,1.057,0,0,0-.122-.7A1.058,1.058,0,0,0,93.62,14.12Z" transform="translate(-82.153 -11.714)" fill="#ffd300"/>
  <path id="Tracé_927" data-name="Tracé 927" d="M96.6,25.921l-.037-.042.037-.04a1.509,1.509,0,0,1,.948-.478,1.222,1.222,0,0,1,.462.074,1.822,1.822,0,0,1,.552.316l.111.1-.147.011a1.4,1.4,0,0,0-.574.2,1.041,1.041,0,0,1-.834.154c-.032-.008-.063-.018-.094-.029A1.067,1.067,0,0,1,96.6,25.921Zm1.339-.35a1.013,1.013,0,0,0-.383-.062,1.268,1.268,0,0,0-.761.367.937.937,0,0,0,.3.173c.025.009.051.017.077.024a.845.845,0,0,0,.687-.134,1.675,1.675,0,0,1,.444-.2A2.488,2.488,0,0,0,97.938,25.571Z" transform="translate(-84.902 -22.297)" fill="#ffd300"/>
  <path id="Tracé_928" data-name="Tracé 928" d="M101.786,20.266a.788.788,0,0,0-.272.384.689.689,0,0,0,.728-.5A.791.791,0,0,0,101.786,20.266Z" transform="translate(-89.256 -17.712)" fill="#ffd300"/>
  <g id="Groupe_177" data-name="Groupe 177" transform="translate(5.066 12.048)">
    <path id="Tracé_929" data-name="Tracé 929" d="M45.1,102.267l.015.013a1.4,1.4,0,0,0,.935.359,1.417,1.417,0,0,0,.756-.22l.02-.013a1.417,1.417,0,0,0,.65-1.363l0-.017.015-.007a1.4,1.4,0,0,0,.806-1.182l-.275-.013a1.12,1.12,0,0,1-.587.915l-.023.012-.009-.025a1.429,1.429,0,0,0-.132-.269,3,3,0,0,0-.612-.68l-.5-.009a2.287,2.287,0,0,0-.346.41,2.2,2.2,0,0,0-.208.406l-.007.018-.019,0a2.211,2.211,0,0,0-.922,0l-.019,0-.007-.018a2.263,2.263,0,0,0-.206-.419,2.291,2.291,0,0,0-.317-.4l-.551.011a2.881,2.881,0,0,0-.593.642,1.448,1.448,0,0,0-.146.289l-.009.025-.023-.014a1.122,1.122,0,0,1-.558-.9l-.275.013A1.416,1.416,0,0,0,42.727,101l.014.007,0,.016a1.4,1.4,0,0,0,.63,1.353l.02.013a1.413,1.413,0,0,0,1.693-.109Zm.95.1a1.123,1.123,0,0,1-.746-.284l-.016-.014.012-.017c.016-.022.031-.043.046-.066a3.178,3.178,0,0,0,.381-.9c.013-.045.027-.089.04-.133l.007-.021.021.006.126.037.01,0a3.092,3.092,0,0,0,.955.172,1.483,1.483,0,0,0,.293-.029l.026-.005v.026a1.137,1.137,0,0,1-.528,1.031l-.021.013A1.142,1.142,0,0,1,46.048,102.363Zm-1.886-.019a1.129,1.129,0,0,1-.621-.186l-.02-.013a1.121,1.121,0,0,1-.513-1.012v-.027l.026.006a1.4,1.4,0,0,0,.324.038,3.006,3.006,0,0,0,.941-.17l.131-.039.022-.006.007.022c.011.037.021.075.032.113l0,.008a3.09,3.09,0,0,0,.364.9c.015.023.03.045.045.067l.012.017-.016.014A1.14,1.14,0,0,1,44.162,102.344Zm.94-.495-.019-.03a2.847,2.847,0,0,1-.324-.815l-.038-.136.024,0a1.915,1.915,0,0,1,.735,0l.025,0-.007.024c-.012.039-.024.078-.035.116a3.005,3.005,0,0,1-.341.813Zm1.783-.975a2.83,2.83,0,0,1-.876-.16l-.1-.029-.047-.014.01-.023a1.913,1.913,0,0,1,.166-.317,2.054,2.054,0,0,1,.342-.4l.015-.014.03.026a2.968,2.968,0,0,1,.606.659,1.184,1.184,0,0,1,.105.215l.009.025-.026.005A1.2,1.2,0,0,1,46.885,100.875Zm-3.526,0a1.174,1.174,0,0,1-.269-.032l-.025-.006.009-.024a1.169,1.169,0,0,1,.12-.24,2.843,2.843,0,0,1,.614-.645l.036-.031.015.014a2.107,2.107,0,0,1,.332.4,1.993,1.993,0,0,1,.168.336l.009.023-.024.007-.124.037A2.746,2.746,0,0,1,43.359,100.875Z" transform="translate(-41.951 -99.769)" fill="#ffd300"/>
  </g>
  <path id="Tracé_930" data-name="Tracé 930" d="M35.963,107.366a1.1,1.1,0,0,1-.419,1.651l-.057.031-.035-.055a1.095,1.095,0,0,1,.419-1.65l.058-.032Zm.027.885a1.058,1.058,0,0,0-.123-.7.872.872,0,0,0-.32,1.262A1.057,1.057,0,0,0,35.99,108.251Z" transform="translate(-30.985 -94.353)" fill="#ffd300"/>
  <path id="Tracé_931" data-name="Tracé 931" d="M24.453,102.641l.037.042-.037.04a1.509,1.509,0,0,1-.948.478,1.222,1.222,0,0,1-.462-.074,1.833,1.833,0,0,1-.552-.316l-.111-.1.147-.011a1.4,1.4,0,0,0,.574-.2,1.041,1.041,0,0,1,.834-.154c.032.008.063.018.094.029A1.067,1.067,0,0,1,24.453,102.641Zm-1.339.35a1.021,1.021,0,0,0,.383.062,1.269,1.269,0,0,0,.761-.367.94.94,0,0,0-.3-.173c-.025-.009-.051-.017-.077-.024a.845.845,0,0,0-.687.134,1.683,1.683,0,0,1-.444.2A2.511,2.511,0,0,0,23.114,102.991Z" transform="translate(-19.678 -89.961)" fill="#ffd300"/>
  <path id="Tracé_932" data-name="Tracé 932" d="M29.327,111.068a.789.789,0,0,0,.272-.384.689.689,0,0,0-.728.5A.792.792,0,0,0,29.327,111.068Z" transform="translate(-25.386 -97.318)" fill="#ffd300"/>
  <path id="Tracé_933" data-name="Tracé 933" d="M93.342,107.311l.058.032a1.095,1.095,0,0,1,.419,1.65l-.035.055-.057-.031a1.1,1.1,0,0,1-.419-1.651Zm.381,1.5a.872.872,0,0,0-.32-1.262.872.872,0,0,0,.32,1.262Z" transform="translate(-81.854 -94.353)" fill="#ffd300"/>
  <path id="Tracé_934" data-name="Tracé 934" d="M96.682,102.378c.031-.011.062-.02.094-.029a1.041,1.041,0,0,1,.834.154,1.4,1.4,0,0,0,.574.2l.147.011-.111.1a1.833,1.833,0,0,1-.552.316,1.223,1.223,0,0,1-.462.074,1.51,1.51,0,0,1-.948-.478l-.036-.04.037-.042A1.064,1.064,0,0,1,96.682,102.378Zm1.283.44a1.679,1.679,0,0,1-.444-.2.845.845,0,0,0-.687-.134c-.026.007-.052.015-.077.024a.939.939,0,0,0-.3.173,1.269,1.269,0,0,0,.761.367,1.018,1.018,0,0,0,.383-.062A2.506,2.506,0,0,0,97.965,102.818Z" transform="translate(-84.602 -89.961)" fill="#ffd300"/>
  <path id="Tracé_935" data-name="Tracé 935" d="M101.446,111.068a.251.251,0,1,1,.456.12A.79.79,0,0,1,101.446,111.068Z" transform="translate(-88.957 -97.318)" fill="#ffd300"/>
  <path id="Tracé_936" data-name="Tracé 936" d="M72.653,15.578l-.02-.013a.958.958,0,0,0-.527-.158.97.97,0,0,0-.521.152,3.248,3.248,0,0,1,.348.873,3.132,3.132,0,0,1,.976-.173,1.555,1.555,0,0,1,.176.01c0-.028-.008-.056-.013-.083A.961.961,0,0,0,72.653,15.578Z" transform="translate(-62.941 -13.547)" fill="#008ec7"/>
  <path id="Tracé_937" data-name="Tracé 937" d="M62.425,30.008a2.357,2.357,0,0,1-.747,0,2.333,2.333,0,0,1-.176.324,2.4,2.4,0,0,1-.266.335q.4,0,.814,0t.795,0a2.448,2.448,0,0,1-.245-.324A2.332,2.332,0,0,1,62.425,30.008Z" transform="translate(-53.841 -26.384)" fill="#008ec7"/>
  <path id="Tracé_938" data-name="Tracé 938" d="M53.295,27.584a2.525,2.525,0,0,0,.485.544A1.784,1.784,0,0,0,54,27.856a1.6,1.6,0,0,0,.081-.139,2.513,2.513,0,0,0-.789-.14Z" transform="translate(-46.856 -24.247)" fill="#008ec7"/>
  <path id="Tracé_939" data-name="Tracé 939" d="M66.614,21.5a1.686,1.686,0,0,0,.346,0,3.265,3.265,0,0,0-.167-.489A3.488,3.488,0,0,0,66.614,21.5Z" transform="translate(-58.57 -18.471)" fill="#008ec7"/>
  <path id="Tracé_940" data-name="Tracé 940" d="M76.132,27.718a1.624,1.624,0,0,0,.088.159,1.813,1.813,0,0,0,.212.275,2.431,2.431,0,0,0,.5-.537l.022-.036h-.045A2.485,2.485,0,0,0,76.132,27.718Z" transform="translate(-66.939 -24.248)" fill="#008ec7"/>
  <path id="Tracé_941" data-name="Tracé 941" d="M52.609,15.4l-.02.012a.958.958,0,0,0-.427.6.989.989,0,0,0-.018.11c.048,0,.1-.006.146-.006a3.207,3.207,0,0,1,1,.177,3.385,3.385,0,0,1,.37-.886.951.951,0,0,0-.53-.162A.971.971,0,0,0,52.609,15.4Z" transform="translate(-45.847 -13.408)" fill="#008ec7"/>
  <path id="Tracé_942" data-name="Tracé 942" d="M45.825,29.4c-.027-.043-.052-.086-.075-.132a.961.961,0,0,0-.36.7q.465.02.946.033A2.9,2.9,0,0,1,45.825,29.4Z" transform="translate(-39.909 -25.734)" fill="#008ec7"/>
  <path id="Tracé_943" data-name="Tracé 943" d="M83.575,29.447a1.5,1.5,0,0,1-.087.15,2.79,2.79,0,0,1-.484.556q.46-.013.907-.031A.949.949,0,0,0,83.575,29.447Z" transform="translate(-72.98 -25.891)" fill="#008ec7"/>
  <path id="Tracé_944" data-name="Tracé 944" d="M27.7,27.942a1.274,1.274,0,0,1,.277.109.7.7,0,0,0,.435.09l.05-.008a.677.677,0,0,0,.2-.069.934.934,0,0,0-.474-.2.873.873,0,0,0-.247.014A1.967,1.967,0,0,0,27.7,27.942Z" transform="translate(-24.356 -24.494)" fill="#008ec7"/>
  <path id="Tracé_945" data-name="Tracé 945" d="M37.608,17.526a.769.769,0,0,0-.031.426.622.622,0,0,0,.238.32.767.767,0,0,0,.031-.426A.623.623,0,0,0,37.608,17.526Z" transform="translate(-33.023 -15.41)" fill="#008ec7"/>
  <path id="Tracé_946" data-name="Tracé 946" d="M101.366,27.942a1.274,1.274,0,0,0-.277.109.7.7,0,0,1-.435.09l-.05-.008a.679.679,0,0,1-.2-.069.935.935,0,0,1,.474-.2.873.873,0,0,1,.247.014A1.966,1.966,0,0,1,101.366,27.942Z" transform="translate(-88.28 -24.494)" fill="#008ec7"/>
  <path id="Tracé_947" data-name="Tracé 947" d="M96.238,17.526a.77.77,0,0,1,.031.426.623.623,0,0,1-.238.32A.771.771,0,0,1,96,17.846.623.623,0,0,1,96.238,17.526Z" transform="translate(-84.391 -15.41)" fill="#008ec7"/>
  <path id="Tracé_948" data-name="Tracé 948" d="M52.61,111.979l.02.013a.957.957,0,0,0,.527.158.971.971,0,0,0,.521-.152,3.248,3.248,0,0,1-.348-.873,3.123,3.123,0,0,1-.976.173,1.585,1.585,0,0,1-.176-.01.729.729,0,0,0,.013.083A.961.961,0,0,0,52.61,111.979Z" transform="translate(-45.877 -97.706)" fill="#008ec7"/>
  <path id="Tracé_949" data-name="Tracé 949" d="M62.045,100.178a2.348,2.348,0,0,1,.747,0,2.3,2.3,0,0,1,.176-.324,2.387,2.387,0,0,1,.266-.334q-.4,0-.814-.005t-.8,0a2.421,2.421,0,0,1,.245.324A2.345,2.345,0,0,1,62.045,100.178Z" transform="translate(-54.184 -87.497)" fill="#008ec7"/>
  <path id="Tracé_950" data-name="Tracé 950" d="M77.142,103.428a2.519,2.519,0,0,0-.485-.544,1.752,1.752,0,0,0-.219.272,1.484,1.484,0,0,0-.081.139,2.52,2.52,0,0,0,.789.139Z" transform="translate(-67.136 -90.46)" fill="#008ec7"/>
  <path id="Tracé_951" data-name="Tracé 951" d="M67.055,109.89a1.679,1.679,0,0,0-.346,0,3.272,3.272,0,0,0,.167.489A3.511,3.511,0,0,0,67.055,109.89Z" transform="translate(-58.654 -96.613)" fill="#008ec7"/>
  <path id="Tracé_952" data-name="Tracé 952" d="M54.082,103.123a1.754,1.754,0,0,0-.088-.159,1.813,1.813,0,0,0-.212-.275,2.439,2.439,0,0,0-.5.537l-.022.036h.045A2.486,2.486,0,0,0,54.082,103.123Z" transform="translate(-46.83 -90.289)" fill="#008ec7"/>
  <path id="Tracé_953" data-name="Tracé 953" d="M72.557,111.988l.02-.013a.963.963,0,0,0,.445-.713c-.048,0-.1.007-.146.007a3.211,3.211,0,0,1-1-.177,3.388,3.388,0,0,1-.37.886.952.952,0,0,0,.53.162A.969.969,0,0,0,72.557,111.988Z" transform="translate(-62.874 -97.676)" fill="#008ec7"/>
  <path id="Tracé_954" data-name="Tracé 954" d="M83.476,100.31q.04.064.075.132a.961.961,0,0,0,.36-.7q-.465-.019-.945-.032A2.915,2.915,0,0,1,83.476,100.31Z" transform="translate(-72.947 -87.671)" fill="#008ec7"/>
  <path id="Tracé_955" data-name="Tracé 955" d="M46.006,100.427a1.578,1.578,0,0,1,.087-.15,2.774,2.774,0,0,1,.484-.556q-.46.012-.907.031A.949.949,0,0,0,46.006,100.427Z" transform="translate(-40.156 -87.679)" fill="#008ec7"/>
  <path id="Tracé_956" data-name="Tracé 956" d="M28.284,105.034a.877.877,0,0,0,.247.014.932.932,0,0,0,.474-.2.7.7,0,0,0-.2-.069l-.05-.008a.7.7,0,0,0-.435.09,1.28,1.28,0,0,1-.277.109A1.9,1.9,0,0,0,28.284,105.034Z" transform="translate(-24.658 -92.112)" fill="#008ec7"/>
  <path id="Tracé_957" data-name="Tracé 957" d="M38.184,111.736a.768.768,0,0,0-.031-.426.625.625,0,0,0-.238.32.767.767,0,0,0,.031.426A.622.622,0,0,0,38.184,111.736Z" transform="translate(-33.321 -97.869)" fill="#008ec7"/>
  <path id="Tracé_958" data-name="Tracé 958" d="M100.784,105.034a.878.878,0,0,1-.247.014.932.932,0,0,1-.474-.2.692.692,0,0,1,.2-.069l.05-.008a.7.7,0,0,1,.435.09,1.275,1.275,0,0,0,.277.109A1.9,1.9,0,0,1,100.784,105.034Z" transform="translate(-87.98 -92.112)" fill="#008ec7"/>
  <path id="Tracé_959" data-name="Tracé 959" d="M95.66,111.736a.77.77,0,0,1,.031-.426.626.626,0,0,1,.238.32.766.766,0,0,1-.031.426A.622.622,0,0,1,95.66,111.736Z" transform="translate(-84.092 -97.869)" fill="#008ec7"/>
  <g id="Groupe_178" data-name="Groupe 178" transform="translate(1.921 5.252)">
    <path id="Tracé_960" data-name="Tracé 960" d="M15.9,43.492h1.746c.857,0,1.637.412,1.637,1.266a1.316,1.316,0,0,1-.577,1.034,1.475,1.475,0,0,1,1.075,1.369c0,1.194-1.148,1.63-2.275,1.63H15.9Zm1,.706v1.719c.512-.125,1.486-.38,1.486-1.064,0-.5-.476-.655-.834-.655Zm0,2.432v1.453h.519c.735,0,1.339-.313,1.339-.96,0-.464-.394-.689-.781-.843A4.247,4.247,0,0,1,16.908,46.631Z" transform="translate(-15.905 -43.492)" fill="#fff"/>
    <path id="Tracé_961" data-name="Tracé 961" d="M52.431,44.882h.947v5.131h-.947Z" transform="translate(-48.02 -44.714)" fill="#fff"/>
    <path id="Tracé_962" data-name="Tracé 962" d="M66.352,47.937a.48.48,0,1,1-.5.483A.494.494,0,0,1,66.352,47.937ZM65.9,49.278h.947V52.7H65.9Z" transform="translate(-59.816 -47.4)" fill="#fff"/>
    <path id="Tracé_963" data-name="Tracé 963" d="M113.678,47.937a.48.48,0,1,1-.5.483A.493.493,0,0,1,113.678,47.937Zm-.454,1.341h.947V52.7h-.947Z" transform="translate(-101.427 -47.4)" fill="#fff"/>
    <path id="Tracé_964" data-name="Tracé 964" d="M79.852,58.545h.954v.361a1.78,1.78,0,0,1,1.154-.429,1.119,1.119,0,0,1,1.263,1.2v2.285H82.28V59.941c0-.451-.134-.766-.676-.766-.514,0-.8.294-.8.632v2.16h-.954Z" transform="translate(-72.13 -56.667)" fill="#fff"/>
  </g>
</svg>
